<svg id="Camada_1" data-name="Camada 1" xmlns="http://www.w3.org/2000/svg" width="28.543" height="11.65" viewBox="0 0 28.543 11.65">
  <path id="Caminho_7485" data-name="Caminho 7485" d="M-.008,4.7c.146.464.3.925.438,1.393Q1.141,8.544,1.842,11c.154.533.24.6.775.6h14.8a13.826,13.826,0,0,0,6.144-1.323,9.258,9.258,0,0,0,4.021-3.5,6.336,6.336,0,0,0,.945-3.118c.017-.515-.209-.708-.7-.652q-3.169.372-6.341.721a.381.381,0,0,1-.275-.173C20.485,2.476,19.757,1.4,19.045.319a.721.721,0,0,0-.7-.372q-3.813.2-7.626.392c-.668.034-1.337.056-2,.1a.934.934,0,0,0-.466.149.489.489,0,0,0-.057.69c.234.393.483.776.723,1.164a.539.539,0,0,1,.108.234c.008.818,0,1.637,0,2.477l-2.374.27c0-.4-.008-.778.008-1.152,0-.057.11-.142.179-.156.255-.053.515-.074.768-.121a.507.507,0,1,0-.13-1q-2.553.359-5.105.728C1.78,3.8,1.193,3.9.6,3.969a.752.752,0,0,0-.616.372ZM26.81,6.121c0,.055,0,.074-.009.092-.027.051-.058.1-.089.149a7.925,7.925,0,0,1-3,2.723,12.669,12.669,0,0,1-6.234,1.5H2.722c-.149-.516-.295-1.021-.451-1.562ZM1.692,7.014l25.87-2.957c-.075.322-.13.6-.209.868a.25.25,0,0,1-.184.128q-2.767.336-5.534.659l-5.286.627-5.756.68-5.286.627c-1.042.123-2.085.251-3.128.366a.268.268,0,0,1-.227-.122c-.1-.274-.168-.559-.26-.881ZM9.454,1.419,13.812,1.2l.45,3.359-4.286.487c0-.58-.024-1.132.006-1.681A2.358,2.358,0,0,0,9.5,1.548C9.482,1.53,9.48,1.5,9.454,1.419Zm10.8,2.455L15.21,4.45c-.149-1.116-.293-2.2-.44-3.3,1.161-.061,2.291-.122,3.421-.176a.245.245,0,0,1,.18.1c.619.91,1.232,1.827,1.88,2.793Zm-16.445.67,1.87-.263V5.536l-1.87.205Zm-.982,1.32-1.419.159L1.09,4.931l1.736-.245Z" transform="translate(0.013 0.057)" fill="#00a3e0"/>
</svg>
