<svg id="bx-user" xmlns="http://www.w3.org/2000/svg" width="45" height="46.466" viewBox="0 0 45 46.466">
  <path id="Caminho_7463" data-name="Caminho 7463" d="M23.605,11.053A5.053,5.053,0,1,1,18.553,6,5.053,5.053,0,0,1,23.605,11.053Z" transform="translate(3.947 -2.632)" fill="none"/>
  <path id="Caminho_7464" data-name="Caminho 7464" d="M27,3A12.38,12.38,0,0,0,14.5,15.228a12.5,12.5,0,0,0,25,0A12.379,12.379,0,0,0,27,3Zm0,19.564a7.429,7.429,0,0,1-7.5-7.337,7.5,7.5,0,0,1,15,0A7.429,7.429,0,0,1,27,22.564Zm22.5,26.9V47.02A17.336,17.336,0,0,0,32,29.9H22A17.334,17.334,0,0,0,4.5,47.02v2.446h5V47.02A12.379,12.379,0,0,1,22,34.792H32A12.379,12.379,0,0,1,44.5,47.02v2.446Z" transform="translate(-4.5 -3)" fill="#fff"/>
</svg>
