<svg id="Camada_1" data-name="Camada 1" xmlns="http://www.w3.org/2000/svg" width="22.834" height="16.763" viewBox="0 0 22.834 16.763">
  <path id="Caminho_7488" data-name="Caminho 7488" d="M0,9.3a1.647,1.647,0,0,1,.437-.653,1.136,1.136,0,0,1,1.386-.014,2.716,2.716,0,0,1,.264.239q2.47,2.468,4.933,4.94c.147.149.216.16.371,0Q14.078,7.107,20.775.419a1.2,1.2,0,0,1,1.2-.4,1.13,1.13,0,0,1,.6,1.809,2.507,2.507,0,0,1-.194.215L8.137,16.29a1.164,1.164,0,0,1-1.487.3,1.613,1.613,0,0,1-.344-.281L.438,10.438A2.394,2.394,0,0,1,0,9.791Z" transform="translate(0 0.021)" fill="#00a3e0"/>
</svg>
