<svg id="Componente_37_2" data-name="Componente 37 – 2" xmlns="http://www.w3.org/2000/svg" width="21.656" height="21.656" viewBox="0 0 21.656 21.656">
  <path id="Caminho_7461" data-name="Caminho 7461" d="M20.663,16.331A4.331,4.331,0,1,1,16.331,12,4.331,4.331,0,0,1,20.663,16.331Z" transform="translate(-5.503 -5.503)" fill="#fff"/>
  <path id="Caminho_7462" data-name="Caminho 7462" d="M14.911,5.241V3H12.745V5.24a8.673,8.673,0,0,0-7.5,7.505H3v2.166H5.24a8.671,8.671,0,0,0,7.505,7.505v2.24h2.166v-2.24a8.67,8.67,0,0,0,7.505-7.505h2.24V12.745h-2.24a8.671,8.671,0,0,0-7.505-7.5ZM13.828,20.325a6.5,6.5,0,1,1,6.5-6.5A6.5,6.5,0,0,1,13.828,20.325Z" transform="translate(-3 -3)" fill="#fff"/>
</svg>
