<svg id="bx-home-smile" xmlns="http://www.w3.org/2000/svg" width="22.834" height="22.834" viewBox="0 0 22.834 22.834">
  <path id="Caminho_7486" data-name="Caminho 7486" d="M4.141,15.558H5.283V23.55a2.285,2.285,0,0,0,2.283,2.283h13.7A2.285,2.285,0,0,0,23.55,23.55V15.558h1.142a1.142,1.142,0,0,0,.807-1.949L15.223,3.334a1.14,1.14,0,0,0-1.614,0L3.334,13.609a1.142,1.142,0,0,0,.808,1.949Zm10.275-9.8,6.85,6.85v5.236l0,5.708H7.567V12.606Z" transform="translate(-2.999 -2.999)" fill="#00a3e0"/>
  <path id="Caminho_7487" data-name="Caminho 7487" d="M15.677,24.975c3.817,0,5.052-3.648,5.1-3.8l-1.959-.64a3.524,3.524,0,0,1-3.144,2.381,3.515,3.515,0,0,1-3.145-2.387l-1.958.647C10.626,21.327,11.86,24.975,15.677,24.975Z" transform="translate(-4.26 -7.221)" fill="#00a3e0"/>
</svg>
