<svg id="location" xmlns="http://www.w3.org/2000/svg" width="14.44" height="21.66" viewBox="0 0 14.44 21.66">
  <path id="location-2" data-name="location" d="M16.22,23.753c.525,0,1.78-1.428,2.9-3.985a22.39,22.39,0,0,0,1.912-7.624A5.041,5.041,0,0,0,16.22,6.907a5.041,5.041,0,0,0-4.813,5.238,22.4,22.4,0,0,0,1.912,7.623C14.439,22.325,15.695,23.753,16.22,23.753Zm0,2.407C12.232,26.16,9,16.367,9,12.144A7.441,7.441,0,0,1,16.22,4.5a7.441,7.441,0,0,1,7.22,7.644C23.44,16.366,20.208,26.16,16.22,26.16Zm0-12.033a2.407,2.407,0,1,0-2.407-2.407A2.407,2.407,0,0,0,16.22,14.127Z" transform="translate(-9 -4.5)" fill="#fff"/>
</svg>
