<svg id="Componente_38_2" data-name="Componente 38 – 2" xmlns="http://www.w3.org/2000/svg" width="24.725" height="24.725" viewBox="0 0 24.725 24.725">
  <path id="Caminho_7461" data-name="Caminho 7461" d="M21.89,16.945A4.945,4.945,0,1,1,16.945,12,4.945,4.945,0,0,1,21.89,16.945Z" transform="translate(-4.583 -4.582)" fill="#00a3e0"/>
  <path id="Caminho_7462" data-name="Caminho 7462" d="M16.6,5.558V3H14.126V5.557a9.9,9.9,0,0,0-8.568,8.569H3V16.6H5.557a9.9,9.9,0,0,0,8.569,8.569v2.557H16.6V25.168A9.9,9.9,0,0,0,25.168,16.6h2.557V14.126H25.168A9.9,9.9,0,0,0,16.6,5.558ZM15.363,22.78a7.418,7.418,0,1,1,7.418-7.418A7.426,7.426,0,0,1,15.363,22.78Z" transform="translate(-3 -3)" fill="#00a3e0"/>
</svg>
