<svg id="bx-message-square" xmlns="http://www.w3.org/2000/svg" width="22.834" height="21.693" viewBox="0 0 22.834 21.693">
  <path id="bx-message-square-2" data-name="bx-message-square" d="M18.984,3H9.85A6.858,6.858,0,0,0,3,9.85v13.7a1.142,1.142,0,0,0,1.142,1.142H18.984a6.858,6.858,0,0,0,6.85-6.85V9.85A6.858,6.858,0,0,0,18.984,3Zm4.567,14.842a4.571,4.571,0,0,1-4.567,4.567H5.283V9.85A4.571,4.571,0,0,1,9.85,5.283h9.134A4.571,4.571,0,0,1,23.551,9.85Z" transform="translate(-3 -3)" fill="#00a3e0"/>
</svg>
