<svg id="bx-question-mark" xmlns="http://www.w3.org/2000/svg" width="11.417" height="18.267" viewBox="0 0 11.417 18.267">
  <path id="bx-question-mark-2" data-name="bx-question-mark" d="M16.209,6A5.715,5.715,0,0,0,10.5,11.709h2.283a3.425,3.425,0,0,1,6.85,0c0,1.22-.518,1.673-1.691,2.574a13.966,13.966,0,0,0-1.4,1.185,4.447,4.447,0,0,0-1.476,3.091v2.283H17.35V18.549a2.376,2.376,0,0,1,.807-1.466,11.964,11.964,0,0,1,1.177-.989c1.211-.932,2.583-1.987,2.583-4.385A5.715,5.715,0,0,0,16.209,6ZM15.067,21.984H17.35v2.283H15.067Z" transform="translate(-10.5 -6)" fill="#00a3e0"/>
</svg>
