<svg id="Componente_39_2" data-name="Componente 39 – 2" xmlns="http://www.w3.org/2000/svg" width="22.834" height="22.834" viewBox="0 0 22.834 22.834">
  <path id="Caminho_7489" data-name="Caminho 7489" d="M11.417,0A11.417,11.417,0,1,1,0,11.417,11.417,11.417,0,0,1,11.417,0Z" fill="#00a3e0"/>
  <path id="bx-question-mark" d="M15.638,6A5.143,5.143,0,0,0,10.5,11.138h2.055a3.083,3.083,0,0,1,6.165,0c0,1.1-.467,1.506-1.522,2.317a12.569,12.569,0,0,0-1.26,1.067A4,4,0,0,0,14.61,17.3v2.055h2.055V17.294a2.139,2.139,0,0,1,.726-1.319,10.768,10.768,0,0,1,1.059-.891c1.09-.839,2.325-1.789,2.325-3.946A5.143,5.143,0,0,0,15.638,6ZM14.61,20.386h2.055v2.055H14.61Z" transform="translate(-4.221 -2.803)" fill="#002d74"/>
</svg>
