<svg id="Componente_34_2" data-name="Componente 34 – 2" xmlns="http://www.w3.org/2000/svg" width="31" height="31" viewBox="0 0 31 31">
  <circle id="Elipse_1" data-name="Elipse 1" cx="15.5" cy="15.5" r="15.5" fill="#ccecf9"/>
  <g id="chevron-right" transform="translate(13.863 6.571)">
    <path id="Caminho_7456" data-name="Caminho 7456" d="M10.353,3.575a.861.861,0,0,1,1.108,0l9.389,8.241a.629.629,0,0,1,0,.972L11.461,21.03a.863.863,0,0,1-1.108,0,.63.63,0,0,1,0-.972L19.189,12.3,10.353,4.547a.629.629,0,0,1,0-.972Z" transform="translate(-10.123 -3.373)" fill="#00a3e0" fill-rule="evenodd"/>
  </g>
  <g id="chevron-right-2" data-name="chevron-right" transform="translate(6.181 6.571)">
    <path id="Caminho_7456-2" data-name="Caminho 7456" d="M10.353,3.575a.861.861,0,0,1,1.108,0l9.389,8.241a.629.629,0,0,1,0,.972L11.461,21.03a.863.863,0,0,1-1.108,0,.63.63,0,0,1,0-.972L19.189,12.3,10.353,4.547a.629.629,0,0,1,0-.972Z" transform="translate(-10.123 -3.374)" fill="#00a3e0" fill-rule="evenodd"/>
  </g>
</svg>
