<svg id="__TEMP__SVG__" xmlns="http://www.w3.org/2000/svg" width="22.834" height="22.821" viewBox="0 0 22.834 22.821">
  <path id="__TEMP__SVG__2" data-name="__TEMP__SVG__" d="M25.823,9.8a1.1,1.1,0,0,0-.033-.244c-.008-.029-.024-.056-.034-.084a1.183,1.183,0,0,0-.08-.188.875.875,0,0,0-.065-.085,1.112,1.112,0,0,0-.116-.148c-.027-.025-.061-.046-.089-.069a1.066,1.066,0,0,0-.137-.107s-.01,0-.016-.007l-.009-.007-10.25-5.7a1.144,1.144,0,0,0-1.107,0l-10.3,5.7a.048.048,0,0,1-.013.011l-.011,0c-.04.023-.069.056-.107.083a1.22,1.22,0,0,0-.121.094,1.03,1.03,0,0,0-.09.116,1.013,1.013,0,0,0-.09.119,1.048,1.048,0,0,0-.067.159.747.747,0,0,0-.046.114,1.113,1.113,0,0,0-.033.24c0,.02-.008.037-.008.057v9.134a1.141,1.141,0,0,0,.588,1l10.249,5.694,0,0,0,0,.023.013a1.167,1.167,0,0,0,.154.062.937.937,0,0,0,.111.044,1.156,1.156,0,0,0,.578,0,1.123,1.123,0,0,0,.111-.044,1.071,1.071,0,0,0,.154-.062l.023-.013,0,0,0,0,10.249-5.694a1.143,1.143,0,0,0,.586-1V9.851c0-.02-.007-.035-.008-.055Zm-11.44,4.477L6.491,9.859,9.644,8.115l7.8,4.458-3.062,1.7Zm.055-8.812,7.9,4.392-2.562,1.424-7.8-4.455,2.457-1.36Zm1.12,17.293,0-6.483,3.423-1.916v3.489L21.265,16.7V13.079L23.549,11.8v6.513l-7.991,4.441Z" transform="translate(-2.999 -3.015)" fill="#00a3e0"/>
</svg>
