<svg id="bx-user" xmlns="http://www.w3.org/2000/svg" width="20" height="20.747" viewBox="0 0 20 20.747">
  <path id="Caminho_7463" data-name="Caminho 7463" d="M23.605,11.053A5.053,5.053,0,1,1,18.553,6,5.053,5.053,0,0,1,23.605,11.053Z" transform="translate(-8.553 -2.632)" fill="none"/>
  <path id="Caminho_7464" data-name="Caminho 7464" d="M14.5,3A5.515,5.515,0,0,0,8.944,8.46a5.556,5.556,0,0,0,11.111,0A5.514,5.514,0,0,0,14.5,3Zm0,8.736A3.276,3.276,0,1,1,17.833,8.46,3.309,3.309,0,0,1,14.5,11.736Zm10,12.011V22.655a7.722,7.722,0,0,0-7.778-7.644H12.278A7.721,7.721,0,0,0,4.5,22.655v1.092H6.722V22.655a5.514,5.514,0,0,1,5.556-5.46h4.444a5.514,5.514,0,0,1,5.556,5.46v1.092Z" transform="translate(-4.5 -3)" />
</svg>
